<svg width="264" height="280" viewBox="0 0 264 280" fill="none" xmlns="http://www.w3.org/2000/svg">
<mask id="mask0" mask-type="alpha" maskUnits="userSpaceOnUse" x="12" y="40" width="240" height="240">
<path d="M132 280C198.274 280 252 226.274 252 160C252 93.7258 198.274 40 132 40C65.7258 40 12 93.7258 12 160C12 226.274 65.7258 280 132 280Z" fill="white"/>
</mask>
<g mask="url(#mask0)">
<path d="M132 280C198.274 280 252 226.274 252 160C252 93.7258 198.274 40 132 40C65.7258 40 12 93.7258 12 160C12 226.274 65.7258 280 132 280Z" fill="#E6E6E6"/>
<path d="M252 40H12V280H252V40Z" fill="url(#paint0_linear)"/>
</g>
<mask id="mask1" mask-type="alpha" maskUnits="userSpaceOnUse" x="0" y="0" width="264" height="280">
<path d="M12 160C12 226.274 65.7258 280 132 280C198.274 280 252 226.274 252 160H264V0H0V160H12Z" fill="white"/>
</mask>
<g mask="url(#mask1)">
<mask id="mask2" mask-type="alpha" maskUnits="userSpaceOnUse" x="32" y="36" width="200" height="244">
<path d="M156 180.611V199H160C199.764 199 232 231.236 232 271V280H32V271C32 231.236 64.2355 199 104 199H108V180.611C90.7626 172.422 78.3722 155.687 76.3051 135.881C70.4803 135.058 66 130.052 66 124V110C66 104.054 70.3246 99.1181 76 98.1659V92C76 61.0721 101.072 36 132 36C162.928 36 188 61.0721 188 92V98.1659C193.675 99.1181 198 104.054 198 110V124C198 130.052 193.52 135.058 187.695 135.881C185.628 155.687 173.237 172.422 156 180.611Z" fill="white"/>
</mask>
<g mask="url(#mask2)">
<path d="M156 180.611V199H160C199.764 199 232 231.236 232 271V280H32V271C32 231.236 64.2355 199 104 199H108V180.611C90.7626 172.422 78.3722 155.687 76.3051 135.881C70.4803 135.058 66 130.052 66 124V110C66 104.054 70.3246 99.1181 76 98.1659V92C76 61.0721 101.072 36 132 36C162.928 36 188 61.0721 188 92V98.1659C193.675 99.1181 198 104.054 198 110V124C198 130.052 193.52 135.058 187.695 135.881C185.628 155.687 173.237 172.422 156 180.611Z" fill="#D0C6AC"/>
<path d="M264 36H0V280H264V36Z" fill="#FFDBB4"/>
<path fill-rule="evenodd" clip-rule="evenodd" d="M188 115V138C188 168.928 162.928 194 132 194C101.072 194 76 168.928 76 138V115V130C76 160.928 101.072 186 132 186C162.928 186 188 160.928 188 130V115Z" fill="black" fill-opacity="0.1"/>
</g>
<mask id="mask3" mask-type="alpha" maskUnits="userSpaceOnUse" x="32" y="183" width="200" height="97">
<path fill-rule="evenodd" clip-rule="evenodd" d="M108 183.071C90.0813 185.076 76.2798 190.552 76.0042 204.645C50.1464 215.568 32 241.165 32 270.999V280H232V270.999C232 241.165 213.854 215.568 187.996 204.645C187.72 190.552 173.919 185.076 156 183.071V202C156 215.255 145.255 226 132 226C118.745 226 108 215.255 108 202V183.071Z" fill="white"/>
</mask>
<g mask="url(#mask3)">
<path fill-rule="evenodd" clip-rule="evenodd" d="M108 183.071C90.0813 185.076 76.2798 190.552 76.0042 204.645C50.1464 215.568 32 241.165 32 270.999V280H232V270.999C232 241.165 213.854 215.568 187.996 204.645C187.72 190.552 173.919 185.076 156 183.071V202C156 215.255 145.255 226 132 226C118.745 226 108 215.255 108 202V183.071Z" fill="#B7C1DB"/>
<path d="M264 170H0V280H264V170Z" fill="white"/>
<path fill-rule="evenodd" clip-rule="evenodd" d="M102 231.739V280H95V228.15C97.2038 229.46 99.5468 230.661 102 231.739ZM169 228.15V268.5C169 270.433 167.433 272 165.5 272C163.567 272 162 270.433 162 268.5V231.739C164.453 230.661 166.796 229.46 169 228.15Z" fill="#F4F4F4"/>
<path fill-rule="evenodd" clip-rule="evenodd" d="M90.9601 182.724C75.9093 185.571 65.5 191.243 65.5 202.308C65.5 222.02 98.5377 238 132 238C165.462 238 198.5 222.02 198.5 202.308C198.5 191.243 188.091 185.571 173.04 182.724C182.125 186.074 188 191.706 188 201.077C188 221.469 160.179 238 132 238C103.821 238 76 221.469 76 201.077C76 191.706 81.8751 186.074 90.9601 182.724Z" fill="black" fill-opacity="0.16"/>
</g>
<mask id="mask4" mask-type="alpha" maskUnits="userSpaceOnUse" x="113" y="147" width="38" height="19">
<path fill-rule="evenodd" clip-rule="evenodd" d="M113.118 149.128C114.176 158.62 122.226 166 132 166C141.804 166 149.874 158.574 150.892 149.04C150.974 148.273 150.117 147 149.043 147C134.149 147 122.738 147 115.087 147C114.007 147 113.012 148.178 113.118 149.128Z" fill="white"/>
</mask>
<g mask="url(#mask4)">
<path fill-rule="evenodd" clip-rule="evenodd" d="M113.118 149.128C114.176 158.62 122.226 166 132 166C141.804 166 149.874 158.574 150.892 149.04C150.974 148.273 150.117 147 149.043 147C134.149 147 122.738 147 115.087 147C114.007 147 113.012 148.178 113.118 149.128Z" fill="black" fill-opacity="0.7"/>
<path d="M143 136H122C119.239 136 117 138.239 117 141V147C117 149.761 119.239 152 122 152H143C145.761 152 148 149.761 148 147V141C148 138.239 145.761 136 143 136Z" fill="white"/>
<path d="M127 180C133.075 180 138 175.075 138 169C138 162.925 133.075 158 127 158C120.925 158 116 162.925 116 169C116 175.075 120.925 180 127 180Z" fill="#FF4F6D"/>
<path d="M137 180C143.075 180 148 175.075 148 169C148 162.925 143.075 158 137 158C130.925 158 126 162.925 126 169C126 175.075 130.925 180 137 180Z" fill="#FF4F6D"/>
</g>
<path fill-rule="evenodd" clip-rule="evenodd" d="M120 130C120 134.418 125.373 138 132 138C138.627 138 144 134.418 144 130" fill="black" fill-opacity="0.16"/>
<mask id="mask5" mask-type="alpha" maskUnits="userSpaceOnUse" x="92" y="103" width="28" height="16">
<path fill-rule="evenodd" clip-rule="evenodd" d="M106 117.048C115.61 117.048 120 121.499 120 114.562C120 107.624 113.732 103 106 103C98.268 103 92 107.624 92 114.562C92 121.499 96.39 117.048 106 117.048Z" fill="white"/>
</mask>
<g mask="url(#mask5)">
<path fill-rule="evenodd" clip-rule="evenodd" d="M106 117.048C115.61 117.048 120 121.499 120 114.562C120 107.624 113.732 103 106 103C98.268 103 92 107.624 92 114.562C92 121.499 96.39 117.048 106 117.048Z" fill="white"/>
<path d="M106 119C109.314 119 112 116.314 112 113C112 109.686 109.314 107 106 107C102.686 107 100 109.686 100 113C100 116.314 102.686 119 106 119Z" fill="black" fill-opacity="0.7"/>
</g>
<mask id="mask6" mask-type="alpha" maskUnits="userSpaceOnUse" x="144" y="103" width="28" height="16">
<path fill-rule="evenodd" clip-rule="evenodd" d="M158 117.048C167.61 117.048 172 121.499 172 114.562C172 107.624 165.732 103 158 103C150.268 103 144 107.624 144 114.562C144 121.499 148.39 117.048 158 117.048Z" fill="white"/>
</mask>
<g mask="url(#mask6)">
<path fill-rule="evenodd" clip-rule="evenodd" d="M158 117.048C167.61 117.048 172 121.499 172 114.562C172 107.624 165.732 103 158 103C150.268 103 144 107.624 144 114.562C144 121.499 148.39 117.048 158 117.048Z" fill="white"/>
<path d="M158 119C161.314 119 164 116.314 164 113C164 109.686 161.314 107 158 107C154.686 107 152 109.686 152 113C152 116.314 154.686 119 158 119Z" fill="black" fill-opacity="0.7"/>
</g>
<path d="M91.6303 99.1586C95.5452 93.6499 106.278 90.5608 115.523 92.8312C116.596 93.0946 117.679 92.4386 117.942 91.3659C118.206 90.2932 117.55 89.21 116.477 88.9466C105.74 86.31 93.3121 89.887 88.3698 96.8414C87.7299 97.7418 87.9411 98.9904 88.8414 99.6303C89.7418 100.27 90.9904 100.059 91.6303 99.1586Z" fill="black" fill-opacity="0.6"/>
<path d="M172.37 99.1586C168.455 93.6499 157.722 90.5608 148.477 92.8312C147.405 93.0946 146.321 92.4386 146.058 91.3659C145.795 90.2932 146.451 89.21 147.523 88.9466C158.26 86.31 170.688 89.887 175.631 96.8414C176.27 97.7418 176.059 98.9904 175.159 99.6303C174.259 100.27 173.01 100.059 172.37 99.1586Z" fill="black" fill-opacity="0.6"/>
<mask id="mask7" mask-type="alpha" maskUnits="userSpaceOnUse" x="0" y="0" width="264" height="280">
<path d="M264 0H0V280H264V0Z" fill="white"/>
</mask>
<g mask="url(#mask7)">
<mask id="mask8" mask-type="alpha" maskUnits="userSpaceOnUse" x="73" y="17" width="117" height="82">
<path fill-rule="evenodd" clip-rule="evenodd" d="M179.15 39.9204C176.39 37.1004 173.186 34.7068 170.069 32.3065C169.382 31.7774 168.683 31.2611 168.011 30.7118C167.858 30.587 166.292 29.4657 166.105 29.0531C165.654 28.0603 165.915 28.8333 165.977 27.6486C166.056 26.1505 169.111 21.9193 166.831 20.949C165.828 20.5222 164.04 21.658 163.078 22.0331C161.196 22.7672 159.292 23.3932 157.347 23.9331C158.279 22.0763 160.055 18.3595 156.716 19.3543C154.114 20.1293 151.69 22.122 149.076 23.0594C149.941 21.6415 153.4 17.2479 150.274 17.0023C149.302 16.9258 146.471 18.7504 145.424 19.1396C142.287 20.3055 139.083 21.0591 135.79 21.6526C124.592 23.6707 111.497 23.0953 101.137 28.1935C93.1495 32.1237 85.2625 38.222 80.6484 45.9875C76.2012 53.4726 74.5378 61.6642 73.607 70.2413C72.924 76.5359 72.8684 83.0426 73.1879 89.36C73.2922 91.4298 73.525 100.971 76.532 98.0814C78.0301 96.6417 78.0191 90.8282 78.3963 88.8604C79.1473 84.9453 79.8701 81.0127 81.122 77.2227C83.3282 70.5439 85.9308 63.4297 91.4269 58.8297C94.954 55.8782 97.4308 51.8889 100.806 48.9112C102.322 47.5739 101.165 47.7131 103.603 47.8886C105.241 48.0063 106.885 48.0513 108.526 48.0942C112.322 48.1929 116.124 48.1677 119.921 48.1811C127.568 48.2087 135.179 48.3167 142.819 47.9164C146.214 47.7386 149.618 47.6423 153.004 47.3283C154.895 47.1528 158.251 45.9406 159.808 46.8669C161.233 47.7144 162.713 50.4818 163.736 51.6151C166.154 54.2936 169.036 56.3392 171.862 58.5355C177.757 63.1149 180.732 68.8667 182.523 76.0232C184.306 83.1533 183.806 89.7682 186.013 96.7848C186.402 98.0185 187.429 100.145 188.695 98.2389C188.93 97.8849 188.87 95.939 188.87 94.8193C188.87 90.2996 190.014 86.9084 190 82.3591C189.944 68.5272 189.496 50.4908 179.15 39.9204Z" fill="white"/>
</mask>
<g mask="url(#mask8)">
<path fill-rule="evenodd" clip-rule="evenodd" d="M179.15 39.9204C176.39 37.1004 173.186 34.7068 170.069 32.3065C169.382 31.7774 168.683 31.2611 168.011 30.7118C167.858 30.587 166.292 29.4657 166.105 29.0531C165.654 28.0603 165.915 28.8333 165.977 27.6486C166.056 26.1505 169.111 21.9193 166.831 20.949C165.828 20.5222 164.04 21.658 163.078 22.0331C161.196 22.7672 159.292 23.3932 157.347 23.9331C158.279 22.0763 160.055 18.3595 156.716 19.3543C154.114 20.1293 151.69 22.122 149.076 23.0594C149.941 21.6415 153.4 17.2479 150.274 17.0023C149.302 16.9258 146.471 18.7504 145.424 19.1396C142.287 20.3055 139.083 21.0591 135.79 21.6526C124.592 23.6707 111.497 23.0953 101.137 28.1935C93.1495 32.1237 85.2625 38.222 80.6484 45.9875C76.2012 53.4726 74.5378 61.6642 73.607 70.2413C72.924 76.5359 72.8684 83.0426 73.1879 89.36C73.2922 91.4298 73.525 100.971 76.532 98.0814C78.0301 96.6417 78.0191 90.8282 78.3963 88.8604C79.1473 84.9453 79.8701 81.0127 81.122 77.2227C83.3282 70.5439 85.9308 63.4297 91.4269 58.8297C94.954 55.8782 97.4308 51.8889 100.806 48.9112C102.322 47.5739 101.165 47.7131 103.603 47.8886C105.241 48.0063 106.885 48.0513 108.526 48.0942C112.322 48.1929 116.124 48.1677 119.921 48.1811C127.568 48.2087 135.179 48.3167 142.819 47.9164C146.214 47.7386 149.618 47.6423 153.004 47.3283C154.895 47.1528 158.251 45.9406 159.808 46.8669C161.233 47.7144 162.713 50.4818 163.736 51.6151C166.154 54.2936 169.036 56.3392 171.862 58.5355C177.757 63.1149 180.732 68.8667 182.523 76.0232C184.306 83.1533 183.806 89.7682 186.013 96.7848C186.402 98.0185 187.429 100.145 188.695 98.2389C188.93 97.8849 188.87 95.939 188.87 94.8193C188.87 90.2996 190.014 86.9084 190 82.3591C189.944 68.5272 189.496 50.4908 179.15 39.9204Z" fill="#1F3140"/>
<path d="M263 0H-1V280H263V0Z" fill="#724133"/>
<g filter="url(#filter0_d)">
<path d="M101 133H98.2421C84.3147 133 76 125.336 76 112.5C76 102.127 77.817 92 99.5299 92H102.47C124.183 92 126 102.127 126 112.5C126 124.569 115.721 133 101 133ZM99.3854 98C80 98 80 104.841 80 113.502C80 120.572 83.1163 129 97.9709 129H101C113.365 129 122 122.627 122 113.502C122 104.841 122 98 102.615 98H99.3854Z" fill="#252C2F"/>
<path d="M163 133H160.242C146.315 133 138 125.336 138 112.5C138 102.127 139.817 92 161.53 92H164.47C186.183 92 188 102.127 188 112.5C188 124.569 177.721 133 163 133ZM161.385 98C142 98 142 104.841 142 113.502C142 120.572 145.119 129 159.971 129H163C175.365 129 184 122.627 184 113.502C184 104.841 184 98 164.615 98H161.385Z" fill="#252C2F"/>
<path d="M69.9545 97.7716C70.6459 97.0963 78.2095 92 99.5 92C117.351 92 121.13 93.8527 126.85 96.6519L127.269 96.8585C127.667 96.999 129.7 97.6898 132.079 97.7658C134.246 97.6728 136.1 97.0854 136.642 96.8972C143.17 93.7221 149.561 92 164.5 92C185.79 92 193.354 97.0963 194.045 97.7716C195.679 97.7716 197 99.0615 197 100.657V103.543C197 105.139 195.679 106.429 194.045 106.429C194.045 106.429 187.144 106.429 187.144 109.315C187.144 112.2 185.182 105.139 185.182 103.543V100.732C181.579 99.3534 175.128 96.7862 164.5 96.7862C152.658 96.7862 146.761 98.886 141.702 100.971L141.759 101.108L141.756 103.094L139.539 108.444L136.8 107.361C136.556 107.264 136.028 107.09 135.296 106.91C133.256 106.407 131.159 106.254 129.304 106.634C128.624 106.774 127.992 106.984 127.413 107.267L124.77 108.558L122.127 103.396L122.244 101.102L122.325 100.907C117.962 98.8739 113.939 96.7862 99.5 96.7862C88.8721 96.7862 82.4221 99.3524 78.8182 100.731V103.543C78.8182 105.139 75.8636 112.2 75.8636 109.315C75.8636 106.429 69.9545 106.429 69.9545 106.429C68.3236 106.429 67 105.139 67 103.543V100.657C67 99.0615 68.3236 97.7716 69.9545 97.7716Z" fill="#252C2F"/>
</g>
</g>
</g>
</g>
<defs>
<filter id="filter0_d" x="63" y="90" width="138" height="49" filterUnits="userSpaceOnUse" color-interpolation-filters="sRGB">
<feFlood flood-opacity="0" result="BackgroundImageFix"/>
<feColorMatrix in="SourceAlpha" type="matrix" values="0 0 0 0 0 0 0 0 0 0 0 0 0 0 0 0 0 0 127 0"/>
<feOffset dy="2"/>
<feGaussianBlur stdDeviation="2"/>
<feColorMatrix type="matrix" values="0 0 0 0 0 0 0 0 0 0 0 0 0 0 0 0 0 0 0.2 0"/>
<feBlend mode="normal" in2="BackgroundImageFix" result="effect1_dropShadow"/>
<feBlend mode="normal" in="SourceGraphic" in2="effect1_dropShadow" result="shape"/>
</filter>
<linearGradient id="paint0_linear" x1="12" y1="160" x2="252" y2="160" gradientUnits="userSpaceOnUse">
<stop stop-color="#4776E6"/>
<stop offset="1" stop-color="#8E54E9"/>
</linearGradient>
</defs>
</svg>
