<svg width="264" height="280" viewBox="0 0 264 280" fill="none" xmlns="http://www.w3.org/2000/svg">
<mask id="mask0" mask-type="alpha" maskUnits="userSpaceOnUse" x="12" y="40" width="240" height="240">
<path d="M132 280C198.274 280 252 226.274 252 160C252 93.7258 198.274 40 132 40C65.7258 40 12 93.7258 12 160C12 226.274 65.7258 280 132 280Z" fill="white"/>
</mask>
<g mask="url(#mask0)">
<path d="M132 280C198.274 280 252 226.274 252 160C252 93.7258 198.274 40 132 40C65.7258 40 12 93.7258 12 160C12 226.274 65.7258 280 132 280Z" fill="#E6E6E6"/>
<path d="M252 40H12V280H252V40Z" fill="url(#paint0_linear)"/>
</g>
<mask id="mask1" mask-type="alpha" maskUnits="userSpaceOnUse" x="0" y="0" width="264" height="280">
<path d="M12 160C12 226.274 65.7258 280 132 280C198.274 280 252 226.274 252 160H264V0H0V160H12Z" fill="white"/>
</mask>
<g mask="url(#mask1)">
<mask id="mask2" mask-type="alpha" maskUnits="userSpaceOnUse" x="32" y="36" width="200" height="244">
<path d="M156 180.611V199H160C199.765 199 232 231.235 232 271V280H32V271C32 231.235 64.2355 199 104 199H108V180.611C90.7626 172.422 78.3722 155.687 76.3051 135.881C70.4803 135.058 66 130.052 66 124V110C66 104.054 70.3246 99.1181 76 98.1659V92C76 61.0721 101.072 36 132 36C162.928 36 188 61.0721 188 92V98.1659C193.675 99.1181 198 104.054 198 110V124C198 130.052 193.52 135.058 187.695 135.881C185.628 155.687 173.237 172.422 156 180.611Z" fill="white"/>
</mask>
<g mask="url(#mask2)">
<path d="M156 180.611V199H160C199.765 199 232 231.235 232 271V280H32V271C32 231.235 64.2355 199 104 199H108V180.611C90.7626 172.422 78.3722 155.687 76.3051 135.881C70.4803 135.058 66 130.052 66 124V110C66 104.054 70.3246 99.1181 76 98.1659V92C76 61.0721 101.072 36 132 36C162.928 36 188 61.0721 188 92V98.1659C193.675 99.1181 198 104.054 198 110V124C198 130.052 193.52 135.058 187.695 135.881C185.628 155.687 173.237 172.422 156 180.611Z" fill="#D0C6AC"/>
<path d="M264 36H0V280H264V36Z" fill="#FFDBB4"/>
<path fill-rule="evenodd" clip-rule="evenodd" d="M188 115V138C188 168.928 162.928 194 132 194C101.072 194 76 168.928 76 138V115V130C76 160.928 101.072 186 132 186C162.928 186 188 160.928 188 130V115Z" fill="black" fill-opacity="0.1"/>
</g>
<mask id="mask3" mask-type="alpha" maskUnits="userSpaceOnUse" x="32" y="183" width="200" height="97">
<path fill-rule="evenodd" clip-rule="evenodd" d="M108 183.071C90.0813 185.076 76.2798 190.552 76.0042 204.645C50.1464 215.568 32 241.165 32 270.999V280H232V270.999C232 241.165 213.854 215.568 187.996 204.645C187.72 190.552 173.919 185.076 156 183.071V202C156 215.255 145.255 226 132 226C118.745 226 108 215.255 108 202V183.071Z" fill="white"/>
</mask>
<g mask="url(#mask3)">
<path fill-rule="evenodd" clip-rule="evenodd" d="M237 107C219.081 109.005 205.28 114.481 205.004 128.574C179.146 139.497 161 165.094 161 194.929V203.929H361V194.929C361 165.094 342.854 139.497 316.996 128.574C316.72 114.481 302.919 109.005 285 107V125.929C285 139.184 274.255 149.929 261 149.929C247.745 149.929 237 139.184 237 125.929V107Z" fill="#B7C1DB"/>
<path d="M264 170H0V280H264V170Z" fill="white"/>
<path fill-rule="evenodd" clip-rule="evenodd" d="M102 231.739V280H95V228.15C97.2038 229.46 99.5468 230.661 102 231.739ZM169 228.15V268.5C169 270.433 167.433 272 165.5 272C163.567 272 162 270.433 162 268.5V231.739C164.453 230.661 166.796 229.46 169 228.15Z" fill="#F4F4F4"/>
<path fill-rule="evenodd" clip-rule="evenodd" d="M90.9601 182.724C75.9093 185.571 65.5 191.243 65.5 202.308C65.5 222.02 98.5377 238 132 238C165.462 238 198.5 222.02 198.5 202.308C198.5 191.243 188.091 185.571 173.04 182.724C182.125 186.074 188 191.706 188 201.077C188 221.469 160.179 238 132 238C103.821 238 76 221.469 76 201.077C76 191.706 81.8751 186.074 90.9601 182.724Z" fill="black" fill-opacity="0.16"/>
</g>
<mask id="mask4" mask-type="alpha" maskUnits="userSpaceOnUse" x="106" y="147" width="52" height="20">
<path fill-rule="evenodd" clip-rule="evenodd" d="M107 149.609C108.41 159.231 119.062 167 132 167C144.968 167 155.646 159.183 157 148.739C157.101 148.34 156.775 147 154.826 147C134.838 147 119.74 147 109.174 147C107.383 147 106.87 148.24 107 149.609Z" fill="white"/>
</mask>
<g mask="url(#mask4)">
<path fill-rule="evenodd" clip-rule="evenodd" d="M107 149.609C108.41 159.231 119.062 167 132 167C144.968 167 155.646 159.183 157 148.739C157.101 148.34 156.775 147 154.826 147C134.838 147 119.74 147 109.174 147C107.383 147 106.87 148.24 107 149.609Z" fill="black" fill-opacity="0.7"/>
<path d="M143 136H122C119.239 136 117 138.239 117 141V147C117 149.761 119.239 152 122 152H143C145.761 152 148 149.761 148 147V141C148 138.239 145.761 136 143 136Z" fill="white"/>
<path fill-rule="evenodd" clip-rule="evenodd" d="M143.984 157.747C143.995 157.83 144 157.914 144 158V167C144 173.075 139.075 178 133 178H132C125.925 178 121 173.075 121 167V158C121 157.914 121.005 157.83 121.016 157.747C121.005 157.665 121 157.583 121 157.5C121 155.567 123.91 154 127.5 154C129.51 154 131.308 154.491 132.5 155.263C133.692 154.491 135.49 154 137.5 154C141.09 154 144 155.567 144 157.5C144 157.583 143.995 157.665 143.984 157.747Z" fill="#FF4F6D"/>
</g>
<path fill-rule="evenodd" clip-rule="evenodd" d="M120 130C120 134.418 125.373 138 132 138C138.627 138 144 134.418 144 130" fill="black" fill-opacity="0.16"/>
<mask id="mask5" mask-type="alpha" maskUnits="userSpaceOnUse" x="92" y="103" width="28" height="16">
<path fill-rule="evenodd" clip-rule="evenodd" d="M106 117.048C115.61 117.048 120 121.499 120 114.562C120 107.624 113.732 103 106 103C98.268 103 92 107.624 92 114.562C92 121.499 96.39 117.048 106 117.048Z" fill="white"/>
</mask>
<g mask="url(#mask5)">
<path fill-rule="evenodd" clip-rule="evenodd" d="M106 117.048C115.61 117.048 120 121.499 120 114.562C120 107.624 113.732 103 106 103C98.268 103 92 107.624 92 114.562C92 121.499 96.39 117.048 106 117.048Z" fill="white"/>
<path d="M106 119C109.314 119 112 116.314 112 113C112 109.686 109.314 107 106 107C102.686 107 100 109.686 100 113C100 116.314 102.686 119 106 119Z" fill="black" fill-opacity="0.7"/>
</g>
<mask id="mask6" mask-type="alpha" maskUnits="userSpaceOnUse" x="144" y="103" width="28" height="16">
<path fill-rule="evenodd" clip-rule="evenodd" d="M158 117.048C167.61 117.048 172 121.499 172 114.562C172 107.624 165.732 103 158 103C150.268 103 144 107.624 144 114.562C144 121.499 148.39 117.048 158 117.048Z" fill="white"/>
</mask>
<g mask="url(#mask6)">
<path fill-rule="evenodd" clip-rule="evenodd" d="M158 117.048C167.61 117.048 172 121.499 172 114.562C172 107.624 165.732 103 158 103C150.268 103 144 107.624 144 114.562C144 121.499 148.39 117.048 158 117.048Z" fill="white"/>
<path d="M158 119C161.314 119 164 116.314 164 113C164 109.686 161.314 107 158 107C154.686 107 152 109.686 152 113C152 116.314 154.686 119 158 119Z" fill="black" fill-opacity="0.7"/>
</g>
<path d="M91.6303 99.1586C95.5452 93.6499 106.278 90.5608 115.523 92.8312C116.596 93.0946 117.679 92.4386 117.942 91.3659C118.206 90.2932 117.55 89.21 116.477 88.9466C105.74 86.31 93.3121 89.887 88.3698 96.8414C87.7299 97.7418 87.9411 98.9904 88.8415 99.6303C89.7418 100.27 90.9904 100.059 91.6303 99.1586Z" fill="black" fill-opacity="0.6"/>
<path d="M172.37 99.1586C168.455 93.6499 157.722 90.5608 148.477 92.8312C147.405 93.0946 146.321 92.4386 146.058 91.3659C145.795 90.2932 146.451 89.21 147.523 88.9466C158.26 86.31 170.688 89.887 175.631 96.8414C176.27 97.7418 176.059 98.9904 175.159 99.6303C174.259 100.27 173.01 100.059 172.37 99.1586Z" fill="black" fill-opacity="0.6"/>
<mask id="mask7" mask-type="alpha" maskUnits="userSpaceOnUse" x="0" y="0" width="264" height="280">
<path d="M264 0H0V280H264V0Z" fill="white"/>
</mask>
<g mask="url(#mask7)">
<mask id="mask8" mask-type="alpha" maskUnits="userSpaceOnUse" x="73" y="17" width="117" height="82">
<path fill-rule="evenodd" clip-rule="evenodd" d="M179.15 39.9204C176.39 37.1004 173.186 34.7068 170.069 32.3065C169.382 31.7774 168.683 31.2611 168.011 30.7118C167.858 30.587 166.292 29.4657 166.105 29.0531C165.654 28.0603 165.915 28.8333 165.977 27.6486C166.056 26.1505 169.111 21.9193 166.831 20.949C165.828 20.5222 164.04 21.658 163.078 22.0331C161.196 22.7672 159.292 23.3932 157.347 23.9331C158.279 22.0763 160.055 18.3595 156.716 19.3543C154.114 20.1293 151.69 22.122 149.076 23.0594C149.941 21.6415 153.4 17.2479 150.274 17.0023C149.302 16.9258 146.471 18.7504 145.424 19.1396C142.287 20.3055 139.083 21.0591 135.79 21.6526C124.592 23.6707 111.497 23.0953 101.137 28.1935C93.1495 32.1237 85.2625 38.222 80.6484 45.9875C76.2012 53.4726 74.5378 61.6642 73.607 70.2413C72.924 76.5359 72.8684 83.0426 73.1879 89.36C73.2922 91.4298 73.525 100.971 76.532 98.0814C78.0301 96.6417 78.0191 90.8282 78.3963 88.8604C79.1473 84.9453 79.8701 81.0127 81.122 77.2227C83.3282 70.5439 85.9308 63.4297 91.4269 58.8297C94.954 55.8782 97.4308 51.8889 100.806 48.9112C102.322 47.5739 101.165 47.7131 103.603 47.8886C105.241 48.0063 106.885 48.0513 108.526 48.0942C112.322 48.1929 116.124 48.1677 119.921 48.1811C127.568 48.2087 135.179 48.3167 142.819 47.9164C146.214 47.7386 149.618 47.6423 153.004 47.3283C154.895 47.1528 158.251 45.9406 159.808 46.8669C161.233 47.7144 162.713 50.4818 163.736 51.6151C166.154 54.2936 169.036 56.3392 171.862 58.5355C177.757 63.1149 180.732 68.8667 182.523 76.0232C184.306 83.1533 183.806 89.7681 186.013 96.7848C186.402 98.0185 187.429 100.145 188.695 98.2389C188.93 97.8849 188.87 95.939 188.87 94.8193C188.87 90.2996 190.014 86.9084 190 82.3591C189.944 68.5272 189.496 50.4908 179.15 39.9204Z" fill="white"/>
</mask>
<g mask="url(#mask8)">
<path fill-rule="evenodd" clip-rule="evenodd" d="M179.15 39.9204C176.39 37.1004 173.186 34.7068 170.069 32.3065C169.382 31.7774 168.683 31.2611 168.011 30.7118C167.858 30.587 166.292 29.4657 166.105 29.0531C165.654 28.0603 165.915 28.8333 165.977 27.6486C166.056 26.1505 169.111 21.9193 166.831 20.949C165.828 20.5222 164.04 21.658 163.078 22.0331C161.196 22.7672 159.292 23.3932 157.347 23.9331C158.279 22.0763 160.055 18.3595 156.716 19.3543C154.114 20.1293 151.69 22.122 149.076 23.0594C149.941 21.6415 153.4 17.2479 150.274 17.0023C149.302 16.9258 146.471 18.7504 145.424 19.1396C142.287 20.3055 139.083 21.0591 135.79 21.6526C124.592 23.6707 111.497 23.0953 101.137 28.1935C93.1495 32.1237 85.2625 38.222 80.6484 45.9875C76.2012 53.4726 74.5378 61.6642 73.607 70.2413C72.924 76.5359 72.8684 83.0426 73.1879 89.36C73.2922 91.4298 73.525 100.971 76.532 98.0814C78.0301 96.6417 78.0191 90.8282 78.3963 88.8604C79.1473 84.9453 79.8701 81.0127 81.122 77.2227C83.3282 70.5439 85.9308 63.4297 91.4269 58.8297C94.954 55.8782 97.4308 51.8889 100.806 48.9112C102.322 47.5739 101.165 47.7131 103.603 47.8886C105.241 48.0063 106.885 48.0513 108.526 48.0942C112.322 48.1929 116.124 48.1677 119.921 48.1811C127.568 48.2087 135.179 48.3167 142.819 47.9164C146.214 47.7386 149.618 47.6423 153.004 47.3283C154.895 47.1528 158.251 45.9406 159.808 46.8669C161.233 47.7144 162.713 50.4818 163.736 51.6151C166.154 54.2936 169.036 56.3392 171.862 58.5355C177.757 63.1149 180.732 68.8667 182.523 76.0232C184.306 83.1533 183.806 89.7681 186.013 96.7848C186.402 98.0185 187.429 100.145 188.695 98.2389C188.93 97.8849 188.87 95.939 188.87 94.8193C188.87 90.2996 190.014 86.9084 190 82.3591C189.944 68.5272 189.496 50.4908 179.15 39.9204Z" fill="#1F3140"/>
<path d="M263 0H-1V280H263V0Z" fill="#724133"/>
</g>
</g>
</g>
<path fill-rule="evenodd" clip-rule="evenodd" d="M143.984 157.747C143.995 157.83 144 157.914 144 158V167C144 173.075 139.075 178 133 178H132C125.925 178 121 173.075 121 167V158C121 157.914 121.005 157.83 121.016 157.747C121.005 157.665 121 157.583 121 157.5C121 155.567 123.91 154 127.5 154C129.51 154 131.308 154.491 132.5 155.263C133.692 154.491 135.49 154 137.5 154C141.09 154 144 155.567 144 157.5C144 157.583 143.995 157.665 143.984 157.747Z" fill="#FF4F6D"/>
<defs>
<linearGradient id="paint0_linear" x1="12" y1="160" x2="252" y2="160" gradientUnits="userSpaceOnUse">
<stop stop-color="#4776E6"/>
<stop offset="1" stop-color="#8E54E9"/>
</linearGradient>
</defs>
</svg>
