<svg xmlns="http://www.w3.org/2000/svg" xmlns:xlink="http://www.w3.org/1999/xlink" width="250.307" height="242.557" viewBox="0 0 250.307 242.557"><defs><linearGradient id="a" x2="1" gradientUnits="objectBoundingBox"><stop offset="0" stop-color="#4776e6"/><stop offset="1" stop-color="#8e54e9"/></linearGradient></defs><g transform="translate(-0.008 -0.998)"><path d="M3.028,70.105,54.759,82.181v46.289c-.012.129-.078.246-.078.379a15.73,15.73,0,0,0,15.71,15.71c.082,0,.149-.043.231-.047H171.9c.082,0,.149.047.231.047a15.73,15.73,0,0,0,15.71-15.71,4,4,0,0,0-.106-.532V82.177l46.99-10.965V89.254l-7.667,26.859a3.246,3.246,0,0,0-.043.552,3.362,3.362,0,0,0-.106.524c0,.082.043.149.047.231a3.9,3.9,0,0,0,.16.8,3.48,3.48,0,0,0,.223.673,3.546,3.546,0,0,0,.411.61,3.382,3.382,0,0,0,.481.571,4.074,4.074,0,0,0,.587.4,4.007,4.007,0,0,0,.716.372c.078.027.133.086.215.11a4.179,4.179,0,0,0,1.064.149h15.6a3.963,3.963,0,0,0,1.06-.149c.082-.023.137-.082.215-.11a3.867,3.867,0,0,0,.716-.368,3.656,3.656,0,0,0,.591-.4,3.492,3.492,0,0,0,.477-.567,3.935,3.935,0,0,0,.415-.614,4.245,4.245,0,0,0,.223-.685,3.511,3.511,0,0,0,.156-.782,2.345,2.345,0,0,0,.051-.239,4.058,4.058,0,0,0-.106-.536,4.121,4.121,0,0,0-.043-.536l-7.62-26.859V66.291a3.836,3.836,0,0,0-.861-2.347,1.107,1.107,0,0,0-.078-.11,3.99,3.99,0,0,0-.735-.669q-.176-.129-.364-.246a3.669,3.669,0,0,0-.755-.317,2.659,2.659,0,0,0-.289-.121L122.106,35.1a3.908,3.908,0,0,0-1.78,0L3.028,62.485a3.914,3.914,0,0,0,0,7.62Zm176.943,59.132a7.877,7.877,0,0,1-7.749,7.487c-.066,0-.113-.039-.18-.039H70.391c-.055,0-.1.027-.153.031a7.873,7.873,0,0,1-7.7-7.581c0-.082.047-.149.047-.235V84l57.744,13.48a3.8,3.8,0,0,0,.892.1,4.05,4.05,0,0,0,.892-.1L179.9,84v44.9a2.56,2.56,0,0,0,.066.336ZM238.614,104.1l2.605,9.177H236Zm-117.4-61.178L221.351,66.295,121.214,89.661,21.124,66.295Z" transform="translate(0 98.995)" fill="url(#a)"/><path d="M115.805,57.008H21.92a3.912,3.912,0,1,0,0,7.824h93.886a3.912,3.912,0,1,0,0-7.824Z" transform="translate(52.414 163.095)" fill="url(#a)"/><path d="M74.677,1A58.644,58.644,0,0,0,64.244,117.357l7.667,7.667a3.91,3.91,0,0,0,5.531,0l7.667-7.667A58.644,58.644,0,0,0,74.677,1Zm7.941,108.845a3.94,3.94,0,0,0-2.159,1.1l-5.786,5.786-5.786-5.786a3.927,3.927,0,0,0-2.159-1.1,50.851,50.851,0,1,1,15.89,0Z" transform="translate(46.564 0)" fill="url(#a)"/><path d="M40.4,13.139a3.908,3.908,0,0,0-5.531,0L23.134,24.875a3.908,3.908,0,0,0,0,5.531L34.87,42.142A3.911,3.911,0,0,0,40.4,36.61l-8.97-8.97,8.97-8.97a3.908,3.908,0,0,0,0-5.531Z" transform="translate(64 32.013)" fill="url(#a)"/><path d="M41.672,13.139a3.911,3.911,0,1,0-5.531,5.531l8.97,8.97-8.97,8.97a3.911,3.911,0,1,0,5.531,5.531L53.408,30.406a3.908,3.908,0,0,0,0-5.531Z" transform="translate(101.875 32.013)" fill="url(#a)"/><path d="M49.006,10.27a3.914,3.914,0,0,0-5.085,2.183L28.269,51.588a3.913,3.913,0,0,0,2.183,5.085,3.856,3.856,0,0,0,1.451.278,3.915,3.915,0,0,0,3.634-2.461L51.188,15.356a3.913,3.913,0,0,0-2.183-5.085Z" transform="translate(81.476 26.185)" fill="url(#a)"/></g></svg>