<svg width="30" height="30" viewBox="0 0 30 30" fill="none" xmlns="http://www.w3.org/2000/svg">
<path d="M15 0C6.717 0 0 6.717 0 15C0 23.283 6.717 30 15 30C23.283 30 30 23.283 30 15C30 6.717 23.283 0 15 0ZM10.6412 22.6758H6.98799V11.6851H10.6412V22.6758ZM8.8147 10.1843H8.79089C7.565 10.1843 6.77216 9.34044 6.77216 8.28575C6.77216 7.20726 7.58926 6.38672 8.83896 6.38672C10.0887 6.38672 10.8577 7.20726 10.8815 8.28575C10.8815 9.34044 10.0887 10.1843 8.8147 10.1843ZM23.8138 22.6758H20.1611V16.796C20.1611 15.3184 19.6321 14.3106 18.3103 14.3106C17.3012 14.3106 16.7001 14.9904 16.436 15.6466C16.3394 15.8814 16.3158 16.2096 16.3158 16.5381V22.6758H12.6629C12.6629 22.6758 12.7107 12.7162 12.6629 11.6851H16.3158V13.2413C16.8013 12.4924 17.6699 11.4272 19.6081 11.4272C22.0116 11.4272 23.8138 12.998 23.8138 16.3737V22.6758Z" fill="url(#paint0_linear)"/>
<defs>
<linearGradient id="paint0_linear" x1="0" y1="15" x2="30" y2="15" gradientUnits="userSpaceOnUse">
<stop stop-color="#4776E6"/>
<stop offset="1" stop-color="#8E54E9"/>
</linearGradient>
</defs>
</svg>
