<?xml version="1.0" encoding="UTF-8" standalone="no"?><!-- Generator: Gravit.io --><svg xmlns="http://www.w3.org/2000/svg" xmlns:xlink="http://www.w3.org/1999/xlink" style="isolation:isolate" viewBox="171.347 126 117.653 117.653" width="117.653pt" height="117.653pt"><linearGradient id="_lgradient_4" x1="0" y1="0.5" x2="1" y2="0.5" gradientTransform="matrix(117.653,0,0,117.653,171.347,126)" gradientUnits="userSpaceOnUse"><stop offset="0%" stop-opacity="1" style="stop-color:rgb(71,118,230)"/><stop offset="0%" stop-opacity="1" style="stop-color:rgb(71,118,230)"/><stop offset="100%" stop-opacity="1" style="stop-color:rgb(142,84,233)"/></linearGradient><path d=" M 230.173 171.356 C 222.567 171.356 216.4 177.522 216.4 185.129 C 216.4 192.736 222.567 198.902 230.173 198.902 C 237.779 198.902 243.946 192.736 243.946 185.129 C 243.946 177.522 237.779 171.356 230.173 171.356 Z  M 175.745 174.164 L 200.977 148.932 L 200.977 183.762 C 200.956 184.215 200.944 184.67 200.944 185.129 C 200.944 201.271 214.03 214.358 230.173 214.358 C 246.317 214.358 259.402 201.271 259.402 185.129 C 259.402 168.986 246.317 155.899 230.173 155.899 C 225.193 155.899 220.503 157.147 216.4 159.343 L 216.4 133.508 L 219.511 130.398 C 225.375 124.534 234.972 124.534 240.835 130.398 L 284.603 174.164 C 290.466 180.029 290.466 189.625 284.603 195.489 L 264.545 215.545 L 240.835 239.254 C 234.972 245.119 225.375 245.119 219.511 239.254 L 175.745 195.489 C 169.881 189.625 169.881 180.029 175.745 174.164 Z " fill-rule="evenodd" fill="url(#_lgradient_4)"/></svg>