<svg width="30" height="30" viewBox="0 0 30 30" fill="none" xmlns="http://www.w3.org/2000/svg">
<path d="M15.0007 0C6.71667 0 0.00100708 6.71587 0.00100708 14.9998C0.00100708 23.2836 6.71667 30 15.0007 30C23.2846 30 30.0008 23.2836 30.0008 14.9998C30.0008 6.71587 23.2846 0 15.0007 0ZM15.001 5.26865L23.8773 10.8037H6.12457L15.001 5.26865ZM23.9879 19.6425H23.987C23.987 20.5303 23.2675 21.2497 22.3798 21.2497H7.62208C6.73427 21.2497 6.01487 20.5302 6.01487 19.6425V11.1559C6.01487 11.062 6.02447 10.9707 6.04007 10.881L14.521 16.1694C14.5314 16.1759 14.5425 16.1803 14.5532 16.1863C14.5644 16.1925 14.5758 16.1985 14.5872 16.2042C14.6471 16.2351 14.7088 16.26 14.7719 16.2763C14.7784 16.2781 14.7849 16.2789 14.7914 16.2804C14.8606 16.2967 14.9307 16.3069 15.0007 16.3069H15.0012C15.0017 16.3069 15.0022 16.3069 15.0022 16.3069C15.0722 16.3069 15.1423 16.297 15.2115 16.2804C15.218 16.2788 15.2245 16.2781 15.231 16.2763C15.294 16.26 15.3555 16.2351 15.4157 16.2042C15.4271 16.1985 15.4385 16.1925 15.4497 16.1863C15.4603 16.1803 15.4715 16.1759 15.4819 16.1694L23.9627 10.881C23.9783 10.9707 23.9879 11.0618 23.9879 11.1559V19.6425Z" fill="url(#paint0_linear)"/>
<defs>
<linearGradient id="paint0_linear" x1="-2.54771e-07" y1="15" x2="30" y2="15" gradientUnits="userSpaceOnUse">
<stop stop-color="#4776E6"/>
<stop offset="1" stop-color="#8E54E9"/>
</linearGradient>
</defs>
</svg>
