<svg xmlns="http://www.w3.org/2000/svg" xmlns:xlink="http://www.w3.org/1999/xlink" width="247.861" height="247.861" viewBox="0 0 247.861 247.861"><defs><linearGradient id="a" y1="0.5" x2="1" y2="0.5" gradientUnits="objectBoundingBox"><stop offset="0" stop-color="#4776e6"/><stop offset="1" stop-color="#8e54e9"/></linearGradient></defs><g transform="translate(0 0)"><path d="M238.034,49.808a55.455,55.455,0,0,0-5.86-14.092l4.644-9.288L221.436,11.047l-9.288,4.644a55.284,55.284,0,0,0-14.1-5.86L194.775,0H173.022l-3.277,9.83a55.143,55.143,0,0,0-14.1,5.86l-9.292-4.644L130.975,26.425l4.644,9.288a55.6,55.6,0,0,0-5.86,14.092l-9.827,3.281V63.964H19.989A20.012,20.012,0,0,0,0,83.953V203.885a20.012,20.012,0,0,0,19.989,19.989H71.959v15.991H55.968v8H191.892v-8H175.9V223.874h51.971a20.012,20.012,0,0,0,19.989-19.989V53.085ZM167.906,239.865H79.955V223.874h87.951Zm59.966-23.987H19.989A12.009,12.009,0,0,1,8,203.885v-4h231.87v4A12.009,12.009,0,0,1,227.872,215.879Zm11.993-23.987H8V83.953A12.009,12.009,0,0,1,19.989,71.96h99.944v2.883l9.827,3.277a55.455,55.455,0,0,0,5.86,14.092l-4.644,9.288,15.382,15.382,9.288-4.644a55.283,55.283,0,0,0,14.1,5.86l3.277,9.83h21.753l3.277-9.83a55.143,55.143,0,0,0,14.1-5.86l9.288,4.644L236.814,101.5l-4.644-9.288a55.668,55.668,0,0,0,5.86-14.092l1.835-.611Zm0-122.816-8.628,2.879-.482,2.223a47.618,47.618,0,0,1-6.514,15.675l-1.23,1.915,4.082,8.156-7.232,7.232-8.159-4.082-1.915,1.234a47.634,47.634,0,0,1-15.671,6.514l-2.223.482-2.883,8.628H178.78L175.9,111.3l-2.223-.482a47.6,47.6,0,0,1-15.671-6.514l-1.915-1.234-8.159,4.082L140.7,99.924l4.082-8.156-1.23-1.915a47.536,47.536,0,0,1-6.514-15.675l-.482-2.223-8.628-2.879V58.848l8.628-2.879.482-2.223a47.619,47.619,0,0,1,6.514-15.675l1.23-1.915L140.7,28l7.232-7.232,8.159,4.082,1.915-1.234A47.634,47.634,0,0,1,173.678,17.1l2.223-.482L178.784,8h10.229l2.879,8.628,2.223.482a47.6,47.6,0,0,1,15.671,6.514l1.915,1.234,8.159-4.082L227.093,28l-4.082,8.156,1.23,1.915a47.536,47.536,0,0,1,6.514,15.675l.482,2.223,8.628,2.879Zm0,0" fill="url(#a)"/><path d="M327.978,48a39.978,39.978,0,1,0,39.978,39.978A40.022,40.022,0,0,0,327.978,48Zm0,71.96A31.982,31.982,0,1,1,359.96,87.978,32.019,32.019,0,0,1,327.978,119.96Zm0,0" transform="translate(-144.081 -24.013)" fill="url(#a)"/><path d="M351.991,96a15.991,15.991,0,1,0,15.991,15.991A16.007,16.007,0,0,0,351.991,96Zm0,23.987a8,8,0,1,1,8-8A8,8,0,0,1,351.991,119.987Zm0,0" transform="translate(-168.094 -48.027)" fill="url(#a)"/><path d="M40,179.993v4a8,8,0,0,1-8,8v8a8,8,0,0,1,8,8v4a12.009,12.009,0,0,0,11.993,11.993h4v-8h-4a4,4,0,0,1-4-4v-4a15.951,15.951,0,0,0-5.425-11.993,15.951,15.951,0,0,0,5.425-11.993v-4a4,4,0,0,1,4-4h4v-8h-4A12.009,12.009,0,0,0,40,179.993Zm0,0" transform="translate(-16.009 -84.047)" fill="url(#a)"/><path d="M279.991,255.991v-4A12.009,12.009,0,0,0,268,240h-4v8h4a4,4,0,0,1,4,4v4a15.951,15.951,0,0,0,5.425,11.993A15.951,15.951,0,0,0,272,279.978v4a4,4,0,0,1-4,4h-4v8h4a12.009,12.009,0,0,0,11.993-11.993v-4a8,8,0,0,1,8-8v-8A8,8,0,0,1,279.991,255.991Zm0,0" transform="translate(-132.074 -120.067)" fill="url(#a)"/><path d="M96,176h75.957v8H96Zm0,0" transform="translate(-48.027 -88.049)" fill="url(#a)"/><path d="M128,208h59.966v8H128Zm0,0" transform="translate(-64.036 -104.058)" fill="url(#a)"/><path d="M96,208h8v8H96Zm0,0" transform="translate(-48.027 -104.058)" fill="url(#a)"/><path d="M96,240h75.957v8H96Zm0,0" transform="translate(-48.027 -120.067)" fill="url(#a)"/><path d="M96,272h75.957v8H96Zm0,0" transform="translate(-48.027 -136.076)" fill="url(#a)"/><path d="M232,304h8v8h-8Zm0,0" transform="translate(-116.065 -152.085)" fill="url(#a)"/><path d="M96,304h59.966v8H96Zm0,0" transform="translate(-48.027 -152.085)" fill="url(#a)"/><path d="M96,336h75.957v8H96Zm0,0" transform="translate(-48.027 -168.094)" fill="url(#a)"/></g></svg>